<svg width="54" height="54" viewBox="0 0 54 54" fill="none" xmlns="http://www.w3.org/2000/svg">
<path d="M22.9314 25.708C22.9314 25.708 22.8621 28.067 26.0787 30.738C34.2816 37.552 31.2688 52.673 21.5987 52.75H16.8172H16.5971H11.8155C2.14649 52.674 -0.866304 37.552 7.3366 30.738C10.5532 28.066 10.4839 25.708 10.4839 25.708H22.9314Z" fill="#DAE7EF"/>
<path d="M16.8181 53.25H11.8165C7.82863 53.219 4.52138 50.682 2.96557 46.463C1.23248 41.763 1.75821 34.718 7.00742 30.357C9.96519 27.9 9.97436 25.74 9.97436 25.718L9.96825 25.213L10.4838 25.208H23.456L23.4407 25.72C23.4407 25.783 23.4784 27.924 26.4067 30.357C31.6559 34.718 32.1816 41.763 30.4485 46.463C28.8937 50.682 25.5875 53.219 21.6017 53.25H16.8181V53.25ZM10.9453 26.208C10.7946 27.101 10.1751 29.035 7.66561 31.12C2.78829 35.172 2.30636 41.737 3.92331 46.123C5.34768 49.988 8.227 52.222 11.8195 52.25H21.5986C25.1871 52.222 28.0664 49.988 29.4908 46.123C31.1077 41.737 30.6268 35.172 25.7485 31.12C23.24 29.035 22.6216 27.1 22.4698 26.208H10.9453Z" fill="#BBD7EA"/>
<path d="M12.655 25.708H10.4838C9.36303 25.708 8.44604 24.808 8.44604 23.708C8.44604 22.608 9.36303 21.708 10.4838 21.708H22.7102C23.831 21.708 24.7479 22.608 24.7479 23.708C24.7479 24.808 23.831 25.708 22.7102 25.708H17.8675H12.655Z" fill="#38454F"/>
<path d="M45.9363 10.114C45.9261 10.105 45.9159 10.096 45.9057 10.087C44.7371 9.04901 45.0539 7.23701 46.3143 6.30701C46.8105 5.94101 47.1324 5.36001 47.1324 4.70801V3.70801C47.1324 2.60801 46.2154 1.70801 45.0947 1.70801H33.8871C32.7664 1.70801 31.8494 2.60801 31.8494 3.70801V4.70801C31.8494 5.37301 32.1856 5.96201 32.7002 6.32401C33.879 7.15401 34.3548 8.75001 33.4154 9.83501C33.3268 9.93701 33.2279 10.035 33.1199 10.127C30.9722 11.942 27.7739 13.95 27.7739 18.708V32.461C32.0073 37.647 31.6303 45.585 27.8982 49.832C28.316 51.476 29.8259 52.708 31.6252 52.708H47.3545C49.4728 52.708 51.2069 51.007 51.2069 48.927V18.708C51.2079 13.936 48.0494 11.934 45.9363 10.114Z" fill="#DAE7EF"/>
<path d="M47.3545 53.208H31.6262C29.6272 53.208 27.891 51.869 27.403 49.953L27.3388 49.702L27.511 49.506C30.8967 45.653 31.6507 38.011 27.3745 32.774L27.2634 32.637V18.708C27.2634 14.237 29.9196 12.082 32.0541 10.35C32.3068 10.145 32.5524 9.94601 32.7867 9.74801C32.8754 9.67301 32.9548 9.59401 33.0272 9.51001C33.398 9.08101 33.4296 8.60901 33.3878 8.28801C33.3145 7.69501 32.9446 7.11301 32.4016 6.73001C31.7352 6.26101 31.3379 5.50501 31.3379 4.70801V3.70801C31.3379 2.32901 32.48 1.20801 33.885 1.20801H45.0926C46.4976 1.20801 47.6398 2.32901 47.6398 3.70801V4.70801C47.6398 5.48801 47.2577 6.23501 46.6178 6.70601C46.0656 7.11401 45.7172 7.73901 45.6886 8.37801C45.6642 8.90001 45.8618 9.37601 46.2449 9.71601L45.9352 10.114L46.2714 9.73801C46.5058 9.94101 46.7554 10.146 47.0111 10.357C49.1069 12.086 51.7152 14.24 51.7152 18.708V48.928C51.7173 51.288 49.76 53.208 47.3545 53.208ZM28.4616 49.949C28.912 51.291 30.1804 52.208 31.6252 52.208H47.3545C49.1986 52.208 50.6974 50.736 50.6974 48.928V18.708C50.6974 14.706 48.3907 12.802 46.356 11.122C46.0941 10.907 45.8404 10.697 45.6 10.49L45.5939 10.484L45.9362 10.114L45.5817 10.473C44.9489 9.91201 44.6321 9.15801 44.6708 8.33201C44.7136 7.39701 45.2128 6.49101 46.0065 5.90601C46.3978 5.61801 46.6219 5.18001 46.6219 4.70701V3.70701C46.6219 2.88001 45.9362 2.20701 45.0936 2.20701H33.8861C33.0435 2.20701 32.3578 2.88001 32.3578 3.70701V4.70701C32.3578 5.18401 32.5962 5.63601 32.9966 5.91701C33.7679 6.46001 34.2916 7.30101 34.4006 8.16501C34.4923 8.89901 34.2804 9.60601 33.8025 10.158C33.6955 10.28 33.5794 10.396 33.451 10.505C33.2126 10.706 32.962 10.91 32.7032 11.12C30.6318 12.801 28.2823 14.707 28.2823 18.707V32.286C32.2722 37.318 32.3445 45.294 28.4616 49.949Z" fill="#BBD7EA"/>
<path d="M28.7011 14.75C28.1397 15.825 27.7729 17.109 27.7729 18.708V32.461C32.0063 37.648 31.6294 45.585 27.8973 49.832C28.315 51.476 29.8249 52.708 31.6243 52.708H47.3536C49.4718 52.708 51.2059 51.007 51.2059 48.927V18.708C51.2059 17.108 50.8462 15.825 50.295 14.75H28.7011V14.75Z" fill="white"/>
<path d="M51.7193 19.665H39.4929V45.836H51.7193V19.665Z" fill="#ABCBDD"/>
<path d="M12.9585 34.75H3.59614C1.64908 38.554 1.58693 43.152 3.07346 46.75H12.9585C14.0793 46.75 14.9963 45.85 14.9963 44.75V36.75C14.9963 35.65 14.0793 34.75 12.9585 34.75Z" fill="#ABCBDD"/>
<path d="M47.3545 53.208H31.6262C29.6272 53.208 27.891 51.869 27.403 49.953L27.3388 49.702L27.511 49.506C30.8967 45.653 31.6507 38.011 27.3745 32.774L27.2634 32.637V18.708C27.2634 14.237 29.9196 12.082 32.0541 10.35C32.3068 10.145 32.5524 9.94601 32.7867 9.74801C32.8754 9.67301 32.9548 9.59401 33.0272 9.51001C33.398 9.08101 33.4296 8.60901 33.3878 8.28801C33.3145 7.69501 32.9446 7.11301 32.4016 6.73001C31.7352 6.26101 31.3379 5.50501 31.3379 4.70801V3.70801C31.3379 2.32901 32.48 1.20801 33.885 1.20801H45.0926C46.4976 1.20801 47.6398 2.32901 47.6398 3.70801V4.70801C47.6398 5.48801 47.2577 6.23501 46.6178 6.70601C46.0656 7.11401 45.7172 7.73901 45.6886 8.37801C45.6642 8.90001 45.8618 9.37601 46.2449 9.71601L45.9352 10.114L46.2714 9.73801C46.5058 9.94101 46.7554 10.146 47.0111 10.357C49.1069 12.086 51.7152 14.24 51.7152 18.708V48.928C51.7173 51.288 49.76 53.208 47.3545 53.208ZM28.4616 49.949C28.912 51.291 30.1804 52.208 31.6252 52.208H47.3545C49.1986 52.208 50.6974 50.736 50.6974 48.928V18.708C50.6974 14.706 48.3907 12.802 46.356 11.122C46.0941 10.907 45.8404 10.697 45.6 10.49L45.5939 10.484L45.9362 10.114L45.5817 10.473C44.9489 9.91201 44.6321 9.15801 44.6708 8.33201C44.7136 7.39701 45.2128 6.49101 46.0065 5.90601C46.3978 5.61801 46.6219 5.18001 46.6219 4.70701V3.70701C46.6219 2.88001 45.9362 2.20701 45.0936 2.20701H33.8861C33.0435 2.20701 32.3578 2.88001 32.3578 3.70701V4.70701C32.3578 5.18401 32.5962 5.63601 32.9966 5.91701C33.7679 6.46001 34.2916 7.30101 34.4006 8.16501C34.4923 8.89901 34.2804 9.60601 33.8025 10.158C33.6955 10.28 33.5794 10.396 33.451 10.505C33.2126 10.706 32.962 10.91 32.7032 11.12C30.6318 12.801 28.2823 14.707 28.2823 18.707V32.286C32.2722 37.318 32.3445 45.294 28.4616 49.949Z" fill="#BBD7EA"/>
<path d="M32.8479 5.75H32.8683C31.5377 5.75 30.4485 4.681 30.4485 3.375C30.4485 2.069 31.5366 1 32.8683 1H46.2409C47.5716 1 48.6608 2.069 48.6608 3.375C48.6608 4.681 47.5716 5.75 46.2409 5.75H39.0386H32.8479Z" fill="#38454F"/>
<path d="M27.0001 52C40.7864 52 51.9624 41.031 51.9624 27.5C51.9624 13.969 40.7864 3 27.0001 3C13.2138 3 2.03784 13.969 2.03784 27.5C2.03784 41.031 13.2138 52 27.0001 52Z" stroke="black" stroke-width="3" stroke-linecap="round" stroke-linejoin="round"/>
<path d="M44.1616 10.6562L9.83851 44.3438" stroke="black" stroke-width="3" stroke-linecap="round" stroke-linejoin="round"/>
</svg>
