<svg width="111" height="114" viewBox="0 0 111 114" fill="none" xmlns="http://www.w3.org/2000/svg">
<path fill-rule="evenodd" clip-rule="evenodd" d="M61.2031 0.121731C74.0539 0.933268 86.1016 7.42557 94.9365 16.3525C105.378 27.714 111 41.5101 111 57.7409C111 70.7255 106.181 82.8985 98.1492 93.4485C90.1174 103.187 78.873 110.491 66.0222 112.925C53.1713 115.36 40.3205 113.737 29.0761 107.245C17.8316 100.752 8.99669 91.0139 4.17763 78.8408C-0.641423 66.6678 -1.4446 52.8716 2.57128 40.6986C6.58716 27.714 13.8157 17.164 25.0602 9.86018C35.5015 2.55634 48.3523 -0.689807 61.2031 0.121731ZM65.219 104.81C75.6603 102.375 85.2984 96.6947 92.527 87.7678C98.9524 78.8408 102.968 68.2909 102.165 56.9293C102.165 43.9447 97.346 30.9601 88.5111 22.0332C80.4793 13.9179 70.8412 9.04864 59.5968 8.2371C49.1555 7.42557 37.911 9.86018 29.0761 16.3525C20.2411 22.8448 13.8157 31.7717 10.603 43.1332C7.39033 53.6832 7.39033 65.0447 12.2094 75.5947C17.0284 86.1447 24.257 94.26 33.8951 99.9408C43.5332 105.622 54.7777 107.245 65.219 104.81ZM55.5809 52.8716L74.8571 32.5832L80.4793 38.264L61.2031 58.5524L80.4793 78.8408L74.8571 84.5216L55.5809 64.2332L36.3047 84.5216L30.6824 78.8408L49.9587 58.5524L30.6824 38.264L36.3047 32.5832L55.5809 52.8716Z" fill="black"/>
</svg>
