<svg width="54" height="54" viewBox="0 0 54 54" fill="none" xmlns="http://www.w3.org/2000/svg">
<path d="M26.981 2C12.655 2 1 13.4392 1 27.5C1 41.5608 12.655 53 26.981 53C41.3072 53 52.9623 41.5608 52.9623 27.5C52.9623 13.4392 41.3072 2 26.981 2ZM26.3674 33.7833C25.7211 34.4644 25.0303 35.0701 23.9211 35.6006C22.8117 36.1312 21.4122 36.3964 19.718 36.3964C17.5639 36.3964 15.7506 35.7392 14.3872 34.4247C13.0237 33.1103 12.2877 31.4039 12.2877 29.3055V25.6947C12.2877 23.6042 12.9985 21.8998 14.3097 20.5814C15.6206 19.263 17.3365 18.6038 19.402 18.6038C21.5479 18.6038 23.2056 19.1166 24.3472 20.1419C25.4888 21.1675 26.0786 22.5386 26.1028 24.2092L26.0856 24.3035H22.7576C22.6929 23.3067 22.3946 22.6354 21.8621 22.1009C21.3296 21.5665 20.551 21.2877 19.5265 21.2877C18.4453 21.2877 17.6042 21.6914 16.9428 22.5102C16.2812 23.329 15.9807 24.3772 15.9807 25.6666V29.2978C15.9807 30.611 16.2933 31.6771 16.9791 32.4959C17.6648 33.3147 18.5735 33.7239 19.7353 33.7239C20.5582 33.7239 21.2434 33.6412 21.7438 33.4752C22.2439 33.3095 22.4898 33.1043 22.9052 32.8595V29.6952H19.6277V27.2939H26.3674V33.7833H26.3674ZM41.6473 21.4944H32.8764V26.297H40.4009V28.8796H32.8764V36.0836H29.4141V18.9118H41.6473V21.4944Z" fill="#FA9861"/>
</svg>
