<svg width="54" height="54" viewBox="0 0 54 54" fill="none" xmlns="http://www.w3.org/2000/svg">
<path d="M3.81619 46.5179C3.60726 46.5179 3.39843 46.4395 3.23931 46.2833C2.92023 45.9701 2.92023 45.464 3.23931 45.1509L10.0518 38.4646C10.3709 38.1522 10.8873 38.1522 11.2056 38.4646C11.5246 38.7777 11.5246 39.2846 11.2056 39.597L4.39307 46.2833C4.23396 46.4395 4.02503 46.5179 3.81619 46.5179Z" fill="#A5A4A4"/>
<path d="M7.28226 47.6464C7.07333 47.6464 6.86449 47.568 6.70538 47.4118C6.38629 47.0986 6.38629 46.5925 6.70538 46.2794L13.313 39.7941C13.6313 39.4818 14.1478 39.4818 14.4668 39.7941C14.785 40.1073 14.785 40.6142 14.4668 40.9265L7.85914 47.4118C7.70002 47.568 7.49119 47.6464 7.28226 47.6464Z" fill="#A5A4A4"/>
<path d="M8.4241 51.0564C8.21517 51.0564 8.00634 50.9779 7.84722 50.8218C7.52814 50.5086 7.52814 50.0025 7.84722 49.6894L14.6678 42.9958C14.9861 42.6826 15.5026 42.6826 15.8216 42.9958C16.1407 43.3082 16.1407 43.8151 15.8216 44.1282L9.00098 50.8218C8.84187 50.9778 8.63294 51.0564 8.4241 51.0564Z" fill="#A5A4A4"/>
<path d="M51.9535 6.18436C51.9649 5.32986 51.632 4.52659 51.0159 3.92192C50.4007 3.31818 49.5652 2.97939 48.7109 3.00097C47.8403 3.01214 47.03 3.35976 46.4352 3.97485L16.3972 34.4993C15.7623 33.8771 14.7269 33.8762 14.0904 34.5002L8.6626 39.8282L10.6274 39.8322C12.7195 39.8363 14.4241 41.5092 14.4281 43.5634L14.4322 45.4919L19.8601 40.1638C20.4965 39.5391 20.4965 38.5228 19.8503 37.9086L50.9572 8.42202C51.5888 7.83339 51.9421 7.03811 51.9535 6.18436Z" fill="#D2D5D7"/>
<path d="M42.9784 7.4882L41.3464 9.14672V17.5325L42.9784 15.9852V7.4882Z" fill="#A5A4A4"/>
<path d="M39.7147 10.8049L38.0828 12.4634V20.6264L39.7147 19.0792V10.8049Z" fill="#A5A4A4"/>
<path d="M36.4507 14.1215L34.8188 15.7801V23.7197L36.4507 22.1734V14.1215Z" fill="#A5A4A4"/>
</svg>
