<svg width="54" height="54" viewBox="0 0 54 54" fill="none" xmlns="http://www.w3.org/2000/svg">
<path d="M26.9808 1C12.6547 1 1 12.4395 1 26.5003C1 40.5617 12.6547 52.0012 26.9808 52.0012C41.3069 52.0012 52.9623 40.5617 52.9623 26.5003C52.9623 12.4395 41.3063 1 26.9808 1ZM26.9808 48.3144C14.7263 48.3144 4.75573 38.5285 4.75573 26.5003C4.75573 14.4721 14.7257 4.68679 26.9808 4.68679C39.2359 4.68679 49.2059 14.4721 49.2059 26.5003C49.2059 38.5285 39.2359 48.3144 26.9808 48.3144Z" fill="#0BA7FF"/>
<path d="M34.4987 28.8476C34.4887 28.8476 34.4799 28.8476 34.4699 28.8476L28.8591 28.9299V14.5182C28.8591 13.5001 28.0183 12.6748 26.981 12.6748C25.9436 12.6748 25.1028 13.5001 25.1028 14.5182V30.8016C25.1028 30.8052 25.104 30.8089 25.104 30.8126C25.104 30.8188 25.1028 30.8243 25.1028 30.8292C25.104 30.9042 25.1184 30.9748 25.1285 31.0467C25.1347 31.0916 25.1353 31.1377 25.1441 31.1819C25.161 31.2612 25.1892 31.3349 25.2161 31.4093C25.2299 31.448 25.2386 31.4885 25.2549 31.5254C25.2875 31.601 25.3313 31.6698 25.3732 31.7405C25.3926 31.7718 25.407 31.8062 25.4277 31.8369C25.4753 31.9051 25.5323 31.966 25.5886 32.028C25.6124 32.0538 25.6318 32.0833 25.6568 32.1085C25.7176 32.1675 25.7858 32.2173 25.8541 32.2683C25.8816 32.2886 25.906 32.3131 25.9342 32.3322C26.0081 32.3814 26.0888 32.4201 26.1696 32.4582C26.1978 32.4711 26.2228 32.4895 26.2516 32.5012C26.3455 32.5399 26.4457 32.5669 26.5471 32.5909C26.5659 32.5952 26.5834 32.6038 26.6028 32.6075C26.7243 32.6314 26.8501 32.645 26.9791 32.645C26.9885 32.645 26.9985 32.645 27.0079 32.645L34.5256 32.5344C35.5623 32.519 36.3906 31.6809 36.3756 30.6633C36.3612 29.655 35.5229 28.8476 34.4987 28.8476Z" fill="#0BA7FF"/>
</svg>
