<svg width="54" height="54" viewBox="0 0 54 54" fill="none" xmlns="http://www.w3.org/2000/svg">
<path d="M52.9219 28.1196C52.9348 27.7908 52.9434 27.4611 52.9434 27.1291C52.9434 13.2508 41.5393 2 27.4717 2C13.4041 2 2 13.2508 2 27.1291C2 38.2592 9.33545 47.6977 19.4963 51L52.9219 28.1196Z" fill="#FCB9B0"/>
<path d="M27.8884 10.6617L27.2332 34.5449L24.4356 36.727L7.09424 38.9632L19.1756 50.7437C21.7102 51.558 24.4183 52 27.2326 52C41.1044 52 52.4106 41.2964 52.9433 27.8974L31.512 7C29.9751 6.9999 27.8884 10.6617 27.8884 10.6617Z" fill="#FB9789"/>
<path d="M28.5644 17H26.4526V13.9302C26.4526 10.8993 27.8003 8.00867 30.15 6L31.547 7.53465C29.6516 9.15508 28.5644 11.4861 28.5644 13.9301V17Z" fill="#813115"/>
<path d="M25.4338 27L27.6414 36.5491C28.5047 36.8402 29.4331 37 30.4008 37C34.9727 37 38.6791 33.4654 38.6791 29.1053L25.4338 27Z" fill="#D92444"/>
<path d="M16.2642 29.1053C16.2642 33.4654 20.0276 37 24.6698 37C25.6525 37 26.5952 36.84 27.4717 36.5491V27L16.2642 29.1053Z" fill="#F72E12"/>
<path d="M33.0717 19.1505L31.9248 15.0111C31.4457 13.2816 29.7101 12 27.6414 12L25.4338 19.9034L27.6415 27.807C30.401 27.807 30.4004 29 33.16 29C35.9196 29 35.9196 27.807 38.6791 27.807C38.6791 24.0944 35.3158 20.8579 33.0717 19.1505Z" fill="#F8513A"/>
<path d="M23.174 14.64L22.0232 19.1659C18.6642 21.0326 16.397 24.5714 16.397 28.6305C19.1655 28.6305 19.1655 29.9349 21.9341 29.9349C24.7025 29.9349 24.7032 28.6305 27.4716 28.6305V11.3478C25.3961 11.3478 23.6547 12.7491 23.174 14.64Z" fill="#FA7461"/>
<path d="M35.2546 25.0913H32.978V27.3257H35.2546V25.0913Z" fill="#FA7461"/>
<path d="M31.9321 21.8305H29.6555V24.0648H31.9321V21.8305Z" fill="#FA7461"/>
<path d="M43.7735 38.625L41.6095 43H27.5437L25.4338 38L43.7735 38.625Z" fill="#FFE376"/>
<path d="M13.0746 42.8151H27.4716V37.9238L10.8596 39.0107L13.0746 42.8151Z" fill="#FFF3AD"/>
<path d="M47.4059 36.8368V39.0107H27.4715L26.3779 37.9238L27.4715 36.8368H47.4059Z" fill="#FFF3AD"/>
<path d="M27.4716 37H7.09424V39H27.4716V37Z" fill="white"/>
</svg>
